<?xml version="1.0" encoding="iso-8859-1"?>
<!-- Generator: Adobe Illustrator 19.0.0, SVG Export Plug-In . SVG Version: 6.00 Build 0)  -->
<svg version="1.1" id="Layer_1" xmlns="http://www.w3.org/2000/svg" xmlns:xlink="http://www.w3.org/1999/xlink" x="0px" y="0px"
	 viewBox="0 0 512 512" style="enable-background:new 0 0 512 512;" xml:space="preserve">
<circle style="fill:#049ae5;" cx="256" cy="256" r="256"/>
<path style="fill:#666666;" d="M172.984,177.323h166.034c5.455,0,9.918,4.461,9.918,9.918V289.52H163.067V187.24
	C163.067,181.785,167.529,177.323,172.984,177.323z"/>
<path style="fill:#21D0C3;" d="M169.8,282.784H342.2V187.24c0-1.737-1.445-3.182-3.182-3.182H172.984
	c-1.737,0-3.182,1.445-3.182,3.182v95.543H169.8z"/>
<g>
	<path style="fill:#FFFFFF;" d="M348.933,289.52v10.846c0,5.455-4.918,9.918-10.933,9.918H173.999
		c-6.014,0-10.933-4.461-10.933-9.918V289.52H348.933z"/>
	<path style="fill:#FFFFFF;" d="M209.5,195.288h93.004h13.844c1.676,0,3.051,1.374,3.051,3.051v18.152v66.294H192.605l0,0V216.49
		v-18.152c0-1.676,1.372-3.051,3.051-3.051h13.847L209.5,195.288L209.5,195.288z"/>
</g>
<path style="fill:#828282;" d="M195.653,195.288h120.692c1.676,0,3.051,1.372,3.051,3.051v6.101H192.602v-6.101
	C192.602,196.662,193.974,195.288,195.653,195.288z"/>
<path style="fill:#FFFFFF;" d="M249.052,198.448h61.247c0.451,0,0.818,0.367,0.818,0.818v1.521c0,0.451-0.37,0.818-0.818,0.818
	h-61.247c-0.451,0-0.818-0.37-0.818-0.818v-1.521C248.233,198.816,248.603,198.448,249.052,198.448z"/>
<path style="fill:#21D0C3;" d="M198.69,197.905c0.968,0,1.755,0.784,1.755,1.755c0,0.97-0.786,1.758-1.755,1.758
	c-0.97,0-1.758-0.786-1.758-1.758C196.932,198.689,197.72,197.905,198.69,197.905z"/>
<path style="fill:#FAD24D;" d="M205.62,197.905c0.97,0,1.758,0.784,1.758,1.755c0,0.97-0.784,1.758-1.758,1.758
	c-0.968,0-1.755-0.786-1.755-1.758C203.866,198.689,204.652,197.905,205.62,197.905z"/>
<path style="fill:#FF5B62;" d="M212.555,197.905c0.968,0,1.755,0.784,1.755,1.755c0,0.97-0.786,1.758-1.755,1.758
	c-0.97,0-1.758-0.786-1.758-1.758C210.797,198.689,211.585,197.905,212.555,197.905z"/>
<path style="fill:#ECF0F1;" d="M199.466,207.794h113.067v37.299H199.466V207.794z"/>
<path style="fill:#FF5B62;" d="M216.241,250.539c4.152,0,7.515,3.365,7.515,7.515c0,4.152-3.365,7.517-7.515,7.517
	c-4.152,0-7.515-3.365-7.515-7.517C208.725,253.904,212.091,250.539,216.241,250.539z"/>
<path style="fill:#21D0C3;" d="M256,250.539c4.152,0,7.515,3.365,7.515,7.515c0,4.152-3.365,7.517-7.515,7.517
	c-4.15,0-7.515-3.365-7.515-7.517C248.485,253.904,251.85,250.539,256,250.539z"/>
<path style="fill:#FAD24D;" d="M295.759,250.539c4.15,0,7.515,3.365,7.515,7.515c0,4.152-3.365,7.517-7.515,7.517
	c-4.152,0-7.517-3.365-7.517-7.517C288.242,253.904,291.607,250.539,295.759,250.539z"/>
<g>
	<path style="fill:#DCE3DB;" d="M205.458,268.076h21.569v1.17h-21.569L205.458,268.076L205.458,268.076z M205.458,275.429h14.487
		v1.17h-14.487V275.429z M205.458,271.751h21.569v1.17h-21.569L205.458,271.751L205.458,271.751z"/>
	<path style="fill:#DCE3DB;" d="M245.214,268.076h21.569v1.17h-21.569V268.076z M245.214,275.429h14.487v1.17h-14.487
		L245.214,275.429L245.214,275.429z M245.214,271.751h21.569v1.17h-21.569V271.751z"/>
	<path style="fill:#DCE3DB;" d="M284.976,268.076h21.566v1.17h-21.566V268.076z M284.976,275.429h14.487v1.17h-14.487V275.429z
		 M284.976,271.751h21.566v1.17h-21.566V271.751z"/>
</g>
<path style="fill:#ECF0F1;" d="M198.903,247.473h113.631v0.467H198.903V247.473z"/>
<circle style="fill:#B6B6B8;" cx="256" cy="299.465" r="3.415"/>
<path style="fill:#C2C2C4;" d="M277.438,325.884l15.769,5.054h-74.412l12.724-5.054v-15.602h45.918L277.438,325.884L277.438,325.884
	z"/>
<path style="fill:#B0B0B0;" d="M277.438,325.884l-45.918-15.602h45.918V325.884z"/>
<path style="fill:#ECF0F1;" d="M231.517,325.884h45.918l15.769,5.054v2.177H256h-37.207v-2.177L231.517,325.884z"/>
<g>
	<path style="fill:#fbde3d;" d="M88.345,369.948h2.028l11.867-6.473l1.933-7.551c-2.827-2.853-5.747-7.685-8.41-13.626
		c-0.218,0.034-0.433,0.05-0.664,0.05c-3.135,0-6.243-3.412-6.943-7.625c-0.546-3.298,0.548-6.104,2.55-7.169
		c-2.655-13.535-4.417-34.319,18.896-39.455c13.984-3.082,18.98,7.714,19.589,8.898c8.464-4.748,13.842,2.373,15.221,6.14
		c2.5,6.815,1.687,19.484,0.409,25.084c1.403,1.34,2.088,3.751,1.634,6.502c-0.69,4.144-3.709,7.512-6.789,7.622
		c-2.492,5.474-5.834,10.167-9.228,13.576l1.93,7.554h0.166l11.541,6.473h2.193c10.175,0,19.112,5.349,23.929,13.243
		c-26.416,35.039-79.039,36.599-107.48,3.25c4.165-9.655,14.096-16.494,25.619-16.494h0.008V369.948z"/>
	<path style="fill:#fbde3d;" d="M367.414,369.948h2.028l11.867-6.473l1.933-7.551c-2.827-2.853-5.747-7.685-8.41-13.626
		c-0.218,0.034-0.433,0.05-0.664,0.05c-3.135,0-6.243-3.412-6.943-7.625c-0.546-3.298,0.548-6.104,2.55-7.169
		c-2.655-13.535-4.417-34.319,18.896-39.455c13.984-3.082,18.98,7.714,19.589,8.898c8.464-4.748,13.842,2.373,15.221,6.14
		c2.5,6.815,1.687,19.484,0.409,25.084c1.403,1.34,2.088,3.751,1.634,6.502c-0.69,4.144-3.709,7.512-6.789,7.622
		c-2.492,5.474-5.834,10.167-9.228,13.576l1.93,7.554h0.166l11.541,6.473h2.193c10.175,0,19.112,5.349,23.929,13.243
		c-12.574,16.677-32.548,27.463-55.041,27.463c-21,0-39.801-9.399-52.437-24.213c4.165-9.655,14.096-16.494,25.619-16.494
		L367.414,369.948L367.414,369.948z"/>
	<path style="fill:#fbde3d;" d="M227.879,118.227h2.028l11.867-6.473l1.933-7.551c-2.827-2.853-5.747-7.685-8.41-13.626
		c-0.218,0.034-0.433,0.05-0.664,0.05c-3.135,0-6.243-3.412-6.943-7.625c-0.546-3.298,0.548-6.104,2.55-7.169
		c-2.655-13.535-4.417-34.319,18.896-39.455c13.984-3.082,18.98,7.714,19.589,8.898c8.464-4.748,13.842,2.373,15.221,6.14
		c2.5,6.815,1.687,19.484,0.409,25.084c1.403,1.34,2.088,3.751,1.634,6.502c-0.69,4.144-3.709,7.512-6.789,7.622
		c-2.492,5.474-5.834,10.167-9.228,13.576l1.93,7.554h0.166l11.541,6.473h2.193c10.175,0,19.112,5.349,23.929,13.243
		c-12.574,16.677-32.548,27.462-55.041,27.462c-21,0-39.801-9.399-52.437-24.213c4.165-9.655,14.096-16.494,25.619-16.494
		L227.879,118.227L227.879,118.227z"/>
</g>
<g>
	<path style="fill:#FEFEFE;" d="M258.146,137.141v33.945h-2.358v-33.945H258.146z"/>
	<circle style="fill:#FEFEFE;" cx="256.968" cy="137.142" r="5.505"/>
	<path style="fill:#FEFEFE;" d="M112.508,319.823v-84.209v-1.178h1.178h40.766v2.358h-39.589v83.029h-2.358h0.003V319.823z
		 M397.136,319.823v-83.029h-42.706v-2.358h43.885h1.178v1.178v84.208h-2.357V319.823z"/>
	<circle style="fill:#FEFEFE;" cx="113.688" cy="319.825" r="5.505"/>
	<circle style="fill:#FEFEFE;" cx="398.312" cy="319.825" r="5.505"/>
</g>
<g>
</g>
<g>
</g>
<g>
</g>
<g>
</g>
<g>
</g>
<g>
</g>
<g>
</g>
<g>
</g>
<g>
</g>
<g>
</g>
<g>
</g>
<g>
</g>
<g>
</g>
<g>
</g>
<g>
</g>
</svg>
